HIERARCHY
ROOT Hips
{
	OFFSET 0.000000 0.000000 0.000000
	CHANNELS 6 Xposition Yposition Zposition Xrotation Yrotation Zrotation
	JOINT LeftUpLeg_virtual
	{
		OFFSET 0.000000 0.000000 0.000000
		CHANNELS 3 Xrotation Yrotation Zrotation
		JOINT LeftUpLeg
		{
			OFFSET 10.205400 -3.823500 0.155100
			CHANNELS 3 Xrotation Yrotation Zrotation
			JOINT LeftLeg
			{
				OFFSET 0.708757 -12.982077 0.567790
				CHANNELS 3 Xrotation Yrotation Zrotation
				JOINT LeftFoot
				{
					OFFSET -0.708756 -10.717838 -2.184338
					CHANNELS 3 Xrotation Yrotation Zrotation
					JOINT LeftToeBase
					{
						OFFSET 0.108149 -7.191104 7.560241
						CHANNELS 3 Xrotation Yrotation Zrotation
						JOINT LeftToe_End
						{
							OFFSET 0.070230 0.081724 4.490308
							CHANNELS 3 Xrotation Yrotation Zrotation
							End Site
							{
								OFFSET 0 0 0
							}
						}
					}
				}
			}
		}
	}
	JOINT RightUpLeg_virtual
	{
		OFFSET 0.000000 0.000000 0.000000
		CHANNELS 3 Xrotation Yrotation Zrotation
		JOINT RightUpLeg
		{
			OFFSET -10.205400 -3.823500 0.005500
			CHANNELS 3 Xrotation Yrotation Zrotation
			JOINT RightLeg
			{
				OFFSET -0.708756 -12.982134 0.610632
				CHANNELS 3 Xrotation Yrotation Zrotation
				JOINT RightFoot
				{
					OFFSET 0.708754 -10.717769 -1.945823
					CHANNELS 3 Xrotation Yrotation Zrotation
					JOINT RightToeBase
					{
						OFFSET -0.108140 -7.191069 7.372968
						CHANNELS 3 Xrotation Yrotation Zrotation
						JOINT RightToe_End
						{
							OFFSET -0.070227 0.081735 4.479403
							CHANNELS 3 Xrotation Yrotation Zrotation
							End Site
							{
								OFFSET 0 0 0
							}
						}
					}
				}
			}
		}
	}
	JOINT Spine_virtual
	{
		OFFSET 0.000000 0.000000 0.000000
		CHANNELS 3 Xrotation Yrotation Zrotation
		JOINT Spine
		{
			OFFSET 0.000000 6.876099 0.125700
			CHANNELS 3 Xrotation Yrotation Zrotation
			JOINT Spine1
			{
				OFFSET 0.000000 5.730043 0.104720
				CHANNELS 3 Xrotation Yrotation Zrotation
				JOINT Spine1_split
				{
					OFFSET 0.000000 5.730043 0.104720
					CHANNELS 3 Xrotation Yrotation Zrotation
					JOINT Spine2
					{
						OFFSET 0.000000 5.730043 0.104720
						CHANNELS 3 Xrotation Yrotation Zrotation
						JOINT Neck_virtual
						{
							OFFSET 0.000000 0.000000 0.000000
							CHANNELS 3 Xrotation Yrotation Zrotation
							JOINT Neck
							{
								OFFSET 0.000000 10.314075 0.188496
								CHANNELS 3 Xrotation Yrotation Zrotation
								JOINT Head
								{
									OFFSET 0.000000 7.643700 -2.377400
									CHANNELS 3 Xrotation Yrotation Zrotation
									JOINT HeadTop_End
									{
										OFFSET 0.000000 43.788605 -13.619600
										CHANNELS 3 Xrotation Yrotation Zrotation
										End Site
										{
											OFFSET 0 0 0
										}
									}
								}
							}
						}
						JOINT LeftShoulder_virtual
						{
							OFFSET 0.000000 0.000000 0.000000
							CHANNELS 3 Xrotation Yrotation Zrotation
							JOINT LeftShoulder
							{
								OFFSET 2.196100 4.412489 0.087492
								CHANNELS 3 Xrotation Yrotation Zrotation
								JOINT LeftShoulder_split
								{
									OFFSET 2.196100 4.412489 0.087492
									CHANNELS 3 Xrotation Yrotation Zrotation
									JOINT LeftArm
									{
										OFFSET 8.771219 -2.981674 -0.026999
										CHANNELS 3 Xrotation Yrotation Zrotation
										JOINT LeftForeArm
										{
											OFFSET 8.512804 0.000000 -0.000000
											CHANNELS 3 Xrotation Yrotation Zrotation
											JOINT LeftHand
											{
												OFFSET 18.484802 0.000000 -0.000000
												CHANNELS 3 Xrotation Yrotation Zrotation
												End Site
												{
													OFFSET 0 0 0
												}
											}
										}
									}
								}
							}
						}
						JOINT RightShoulder_virtual
						{
							OFFSET 0.000000 0.000000 0.000000
							CHANNELS 3 Xrotation Yrotation Zrotation
							JOINT RightShoulder
							{
								OFFSET -2.196100 4.412496 0.070690
								CHANNELS 3 Xrotation Yrotation Zrotation
								JOINT RightShoulder_split
								{
									OFFSET -2.196100 4.412496 0.070690
									CHANNELS 3 Xrotation Yrotation Zrotation
									JOINT RightArm
									{
										OFFSET -8.771282 -2.981682 -0.094208
										CHANNELS 3 Xrotation Yrotation Zrotation
										JOINT RightForeArm
										{
											OFFSET -8.494598 0.000000 0.000000
											CHANNELS 3 Xrotation Yrotation Zrotation
											JOINT RightHand
											{
												OFFSET -18.483803 0.000000 0.000001
												CHANNELS 3 Xrotation Yrotation Zrotation
												End Site
												{
													OFFSET 0 0 0
												}
											}
										}
									}
								}
							}
						}
					}
				}
			}
		}
	}
}
MOTION
Frames: 4
Frame Time: 0.03333333
-0.399174 26.007322 1.456577 0.000000 0.000000 0.000000 24.939445 -10.063439 -4.315737 -90.873864 -3.558774 6.385917 59.067230 7.050234 -9.972969 21.330831 30.298876 5.145277 -6.200835 1.110408 1.979706 0.000000 0.000000 0.000000 23.915544 -9.170647 -5.523268 5.243523 -19.128452 2.152555 64.597054 -4.937939 8.588971 -30.270364 -18.147657 38.284313 -37.871394 3.623846 -0.327489 0.000000 0.000000 0.000000 19.782408 -9.713343 -6.401776 10.641022 11.726552 -9.594284 1.205089 4.003738 -0.581817 0.418605 2.070159 0.425794 0.000000 0.000000 0.000000 1.840697 4.393864 -0.648826 -1.264490 -4.644591 3.951078 -3.328091 -9.376165 12.381356 0.000000 0.000000 0.000000 2.845804 4.185785 -0.738494 1.657330 2.265419 -15.285130 -1.767216 -0.345517 -2.212215 -5.183062 24.235547 -36.493776 1.244365 -21.017230 -0.761396 0.000000 0.000000 0.000000 2.786958 4.125996 -0.677000 3.896961 11.678138 -6.386267 0.829294 0.214012 2.268727 -51.688379 64.178349 17.930575 -171.974341 77.120144 169.570470 0.000000 0.000000 0.000000 
-0.579240 26.005148 2.493132 0.000000 0.000000 0.000000 25.735564 -10.043475 -4.345188 -90.995632 -3.580299 6.937164 59.188227 6.444737 -10.128190 20.409637 30.273772 5.244412 -6.122250 1.114479 2.002186 0.000000 0.000000 0.000000 25.134169 -8.328363 -5.804153 3.608370 -18.910303 -1.090472 64.382941 -3.992021 8.849967 -28.081107 -17.580518 37.814209 -37.002533 2.677177 0.750723 0.000000 0.000000 0.000000 21.323302 -9.386218 -6.327727 11.067307 11.451189 -9.893400 1.517180 3.842561 -0.582751 0.662430 1.750553 0.237406 0.000000 0.000000 0.000000 1.940342 4.301306 -0.694763 -1.372204 -4.164207 3.804076 -3.373625 -9.568868 12.177969 0.000000 0.000000 0.000000 3.016651 4.007535 -0.762378 1.624125 1.304063 -15.607032 -2.346392 -1.063732 -2.473506 -7.201560 23.143331 -36.158523 1.362827 -22.616428 -0.772456 0.000000 0.000000 0.000000 2.868678 3.979345 -0.636957 3.933124 12.073561 -6.175522 0.791660 0.040047 2.258702 -48.446020 63.267182 14.713027 -170.182387 77.831413 168.041122 0.000000 0.000000 0.000000 
-0.950175 25.977158 3.768129 0.000000 0.000000 0.000000 27.130985 -9.914164 -4.149047 -92.019744 -3.775309 7.697670 60.660440 5.274195 -10.101004 17.701690 30.044448 5.687504 -6.485032 1.111808 2.006427 0.000000 0.000000 0.000000 27.211269 -6.974199 -5.847443 -1.164935 -17.635171 -7.182153 64.808742 -3.197263 8.901767 -24.116500 -17.224765 35.933659 -35.507790 1.399810 3.393466 0.000000 0.000000 0.000000 23.661508 -9.082338 -6.021084 12.107253 10.764310 -10.406204 1.682542 3.637968 -0.737552 1.057984 1.595008 -0.123716 0.000000 0.000000 0.000000 1.954193 4.140610 -0.906028 -1.770749 -3.606663 3.594563 -3.832721 -10.023963 12.033191 0.000000 0.000000 0.000000 2.941290 3.769302 -0.924269 1.487760 -0.088180 -16.503579 -3.071695 -1.133465 -2.942926 -9.891160 21.552310 -34.810489 1.747940 -26.097685 -0.531650 0.000000 0.000000 0.000000 2.763910 3.746273 -0.759283 3.934275 12.724131 -5.583904 0.421307 0.134965 2.148644 -41.984985 60.783247 8.772101 -169.666257 77.147260 167.652908 0.000000 0.000000 0.000000 
-1.423085 25.918121 5.076583 0.000000 0.000000 0.000000 28.989085 -9.644574 -3.771194 -93.797021 -3.947037 8.391938 63.034026 3.665003 -9.893707 13.803871 29.404548 6.185259 -7.409886 1.062800 2.194793 0.000000 0.000000 0.000000 29.770558 -5.543101 -5.627041 -8.617745 -15.155148 -15.100457 65.942027 -2.621887 8.856636 -19.016333 -17.401017 32.868691 -33.846214 0.151252 6.579701 0.000000 0.000000 0.000000 26.503704 -8.728931 -5.584070 13.491612 9.782005 -11.034323 1.659932 3.392805 -0.980752 1.272862 1.506183 -0.251317 0.000000 0.000000 0.000000 1.904609 3.922021 -1.206070 -2.381284 -3.035376 3.311718 -4.684484 -10.699057 11.946844 0.000000 0.000000 0.000000 2.711155 3.498609 -1.172874 1.269818 -1.606759 -17.896807 -3.767334 -0.584910 -3.433978 -12.299813 19.712273 -32.935244 2.299089 -30.730312 -0.079074 0.000000 0.000000 0.000000 2.502170 3.447219 -1.005266 3.938284 13.489634 -4.791878 -0.044040 0.528761 1.996989 -34.985281 57.165596 2.844358 -170.580491 74.982705 168.600979 0.000000 0.000000 0.000000 
